<svg xmlns="http://www.w3.org/2000/svg" width="52.7mm" height="157.4mm" viewBox="0 0 149.4 446.3">
  <defs>
    <style>
      .cls-1 {
        fill: #b0b5c2;
      }

      .cls-2 {
        fill: #e7e6e6;
      }

      .cls-3 {
        fill: #f2f2f2;
      }
    </style>
  </defs>
  <g id="Ebene_2" data-name="Ebene 2">
    <g id="Ebene_1-2" data-name="Ebene 1">
      <g>
        <path class="cls-1" d="M78.2,350.2a32.2,32.2,0,0,0,.2-8.2,11.9,11.9,0,0,0-3.4-7.4,18.9,18.9,0,0,0,3.2,15.6"/>
        <path class="cls-1" d="M79.9,357.6a16.7,16.7,0,0,0-13.7-10.1,16.2,16.2,0,0,0,13.7,10.1"/>
        <path class="cls-1" d="M8.6,31.1a16.2,16.2,0,0,1,4-13.6"/>
        <path class="cls-1" d="M9.4,10.9A11.5,11.5,0,0,1,0,22.9"/>
        <path class="cls-1" d="M67.6,63.3A21.6,21.6,0,0,0,67,45.2a26.8,26.8,0,0,0,.6,18.1"/>
        <path class="cls-1" d="M138.2,121.8a35.8,35.8,0,0,0-1.2,22.4c4.9-6.2,4.6-15.3,1.2-22.4"/>
        <path class="cls-1" d="M131.4,134.3a17,17,0,0,0,.2,15.8c1.2-5.2,1.8-10.8-.2-15.8"/>
        <path class="cls-2" d="M82.9,442.7c0-27.8,3.7-56.4,4.4-67.9-4.8-9.4-11.4-18.3-10.8-28.6l11.5,15c.8-14.2,1.6-28.4,2.1-42.6h2.7c3.9,0,7.1-.5,7.1-1.1s-3.2-1.2-7.1-1.2H90.1c.3-8.8.5-17.7.5-26.5,0-19.9-.4-39.9-.6-59.9h2.5c4.2,0,7.5-.6,7.5-1.3s-3.3-1.3-7.5-1.3H90c-.1-16.6,0-33.3.6-49.8.8-22.9,2-46.2,1.3-69.2-.2,1.5-.4,2.9-.5,4.4,1.2-18.4-11.6-34.8-26.1-46.2s-31.2-20-43.5-33.7c0,0-15.6-20.4-18.2-30.8S11.4,18,35,40.2c10.2,7.3,22.6,11,32.8,18.3s16.6,17,22.9,27.2c-1-15.4-2-30.9-1.4-46.6.4-11.2.7-22.5,1-33.7h28.3c-.5,15.6-2.4,31.3-1.9,46.7.5,13.1,1.9,25.7,1.9,38.9q0,17.3-.6,34.5c-3.5.2-6.1.9-6.1,1.7s2.5,1.5,6,1.7l-.3,8.3h-2.4c-4.5,0-8.1.8-8.1,1.8s3.6,1.8,8.1,1.8h2.3c-.3,8.1-.7,16.3-1,24.4l32.9-36.9v8.1q-15.7,21.9-33.5,42.2c-.2,3-.3,5.9-.4,8.9-.7,16.8.5,33,.3,49.8-.1,19.1-3.4,37.9-2.9,56.9.3,10.1.3,20.2.1,30.3h-.4c-7.8,0-14,.8-14,1.8s6.2,1.8,14,1.8h.3c-.7,26.4-2.4,52.7-1.9,79.1.2,11.2,1.6,27,2.6,36.5.5,4.9-30.7,2.6-30.7-.8"/>
        <path class="cls-3" d="M98.6,415.9c5.1.5,4.4-22.4.3-23.9s-5.4,23.4-.3,23.9"/>
        <path class="cls-3" d="M91.1,341.9c0,.7,3.3,1.2,7.5,1.2s7.5-.5,7.5-1.2-3.4-1.3-7.5-1.3-7.5.5-7.5,1.3"/>
        <path class="cls-3" d="M104.1,17.5c-3.4,0-6.1.6-6.1,1.3s2.7,1.3,6.1,1.3,6.1-.6,6.1-1.3-2.7-1.3-6.1-1.3"/>
        <path class="cls-3" d="M113.1,109.4c0-.5-3.3-.9-7.5-.9s-7.5.4-7.5.9,3.4.9,7.5.9,7.5-.4,7.5-.9"/>
        <path class="cls-3" d="M97.5,244.7c0,.6,2.2,1,4.9,1s4.9-.4,4.9-1-2.2-1-4.9-1-4.9.5-4.9,1"/>
        <path class="cls-3" d="M105.6,160.9c4.5,0,8.1-.8,8.1-1.8s-3.6-1.8-8.1-1.8-8.1.8-8.1,1.8,3.6,1.8,8.1,1.8"/>
        <path class="cls-3" d="M102.4,70.9c4.5,0,8.1-.8,8.1-1.8s-3.6-1.8-8.1-1.8-8.2.8-8.2,1.8,3.7,1.8,8.2,1.8"/>
      </g>
    </g>
  </g>
</svg>
