<svg xmlns="http://www.w3.org/2000/svg" width="44.9mm" height="174.1mm" viewBox="0 0 127.4 493.4">
  <defs>
    <style>
      .cls-1 {
        fill: #b0b5c2;
      }

      .cls-2 {
        fill: #e7e6e6;
      }

      .cls-3 {
        fill: #fff;
      }
    </style>
  </defs>
  <g id="Ebene_2" data-name="Ebene 2">
    <g id="Ebene_1-2" data-name="Ebene 1">
      <g>
        <path class="cls-1" d="M55.2,122.1c3-1.9,1.6-8.4-.2-10.6-1.8,3.1-1.2,7.5.2,10.6"/>
        <path class="cls-1" d="M50.7,116c4-4.2,2.4-11.7-.6-15.8-1.5,4.3-1.8,11.7.6,15.8"/>
        <path class="cls-1" d="M58.9,128.8c-3.5,1.1-6.6.2-9.9-.6a12.1,12.1,0,0,1,5.7-1.1c1.8.1,2.6,1.3,4.2,1.7"/>
        <path class="cls-1" d="M4.5,35c3.2-1,3.9-5.7,3.2-8.5C4.4,28.6,4.5,31.6,4.5,35"/>
        <path class="cls-1" d="M54.6,10.7a15.2,15.2,0,0,1,6.8-6,7.3,7.3,0,0,1-6.8,6"/>
        <path class="cls-1" d="M61.6,4.7a10.8,10.8,0,0,1,1.3,8.2,8.7,8.7,0,0,1-1.3-8.2"/>
        <path class="cls-1" d="M117.3,305.4a15.4,15.4,0,0,0,1.2,12.6,13.2,13.2,0,0,0-1.2-12.6"/>
        <path class="cls-1" d="M127.4,310.6a9.5,9.5,0,0,0-9.4,6.2,10.9,10.9,0,0,0,9.4-6.2"/>
        <path class="cls-1" d="M106.2,185.2a18.2,18.2,0,0,0,4.9,13.1c.6-4.7-2.2-9.2-4.9-13.1"/>
        <path class="cls-1" d="M112.5,198a15.3,15.3,0,0,1,11.5-3.4,13.9,13.9,0,0,1-11.5,3.4"/>
        <path class="cls-2" d="M0,27.3c6.8,8.2,10.9,18.7,15.8,28,5.8,10.9,10.8,22.3,17.2,33,4.1,7,9,13.3,13.2,20.1,3,4.9,6.4,8.2,10.6,12,5.7,5.2,12.1,10.3,17.5,16.2-.2-6.6-.4-13.2-.5-19.8h.3c3.5,0,6.3-.6,6.3-1.4s-2.8-1.4-6.3-1.4h-.3c-.1-7.6-.1-15.2.1-22.7l.3-11.6h2.7c6,0,10.8-.6,10.8-1.3S82.9,77,76.9,77H74.3c.4-15.9.8-31.8.4-48-.8-1.9-1.7-3.8-2.6-5.8C68.9,16.6,61.7,8.3,57.6,0h5.6c3.1,5.9,6.4,14.1,11.2,20.2C74.2,13.7,74,6.8,74,0H94.5l-.3,11.2h-2c-6,0-10.8.6-10.8,1.4S86.2,14,92.2,14h1.9v5.1H92.2c-3.5,0-6.3.6-6.3,1.4s2.8,1.4,6.3,1.4h1.9c.1,1.7.1,3.3.1,4.9.3,7.1.6,14.1.7,21,3-3.1,5.8-6.4,8.7-9.5v9.5c-3.6,5.3-6.4,11.8-8.9,18.1-.1,1.7-.2,3.3-.4,5-1.8,23.3-1.1,47.5-.7,71.4H92.2c-2.6,0-4.7.4-4.7,1s2.1,1,4.7,1h1.4c.2,12.1.3,24.1-.1,35.9s-.6,21.9-.7,32.7a25.4,25.4,0,0,0-4.3-.3c-3.2,0-5.8.4-5.8,1s2.6,1,5.8,1a23.4,23.4,0,0,0,4.2-.3c0,4.2-.1,8.4-.1,12.6a34.6,34.6,0,0,1,3.1-4.7c5.8-7.7,8.4-17.2,14.7-24.6,3.5-4.2,8.1-8.3,8.1-13.8.2,7-3.2,13.5-6.4,19.6-6,11.3-14,22.8-17.1,35.2-1.3,5.5-1.6,11.9-2.3,18,.2,10.9.6,21.8,1.3,32.8.1,3.3.3,6.6.4,9.8-2.1,0-3.8.4-3.8.8s1.7.8,3.8.8h0c.5,15,.4,30.2.3,45.3l1.9-2.6c4.6-6,10.2-11.1,14.9-16.9a71.2,71.2,0,0,0,13.4-25.9c-4.5,21-17,39.1-30.1,56.2.1,20.3,1,40.8.3,61-.7,25.3-2,50.6-2.8,75.8H73.2c.1-4.9.1-9.8.3-14.6.4-15.5.4-31.4.4-46.9,0-13.2.1-26.5.2-39.7h0c3.5,0,6.3-.6,6.3-1.4s-2.8-1.4-6.3-1.4h0c.1-12.3.2-24.6.2-36.9v-7.4a13.3,13.3,0,0,0,4.1.5c2.6,0,4.7-.5,4.7-1s-2.1-1-4.7-1a13.7,13.7,0,0,0-4.1.5v-2.3h2.5c3.5,0,6.3-.6,6.3-1.4s-2.8-1.4-6.3-1.4l-2.4.2c.1-9,.3-17.9.5-26.8a18.4,18.4,0,0,0,5.5.7c3.5,0,6.4-.6,6.4-1.4s-2.9-1.4-6.4-1.4a17.1,17.1,0,0,0-5.4.7c.4-16.7.9-33.4.9-50.2V243.3c1.7-.3,2.7-.7,2.7-1.2s-1-.9-2.7-1.1v-8h1.2c3.2,0,5.8-.3,5.8-.7s-2.6-.7-5.8-.7H75.9c0-19.7,0-39.4-.4-59.2l-.6-17.9a40.2,40.2,0,0,0-5-8.1c-4.1-5.3-8.5-10.3-12.1-15.7-5.5-8.3-11.9-15-17.9-22.7S30.6,93.4,26.4,85.4c-5.1-9.9-10.8-18.9-14.3-29.7S3.6,37,0,27.3"/>
        <path class="cls-2" d="M88.5,65.3c0-.6-2.6-1-5.8-1s-5.8.4-5.8,1,2.6,1,5.8,1,5.8-.5,5.8-1"/>
        <path class="cls-3" d="M78.1,428.6c0,.8,2.8,1.4,6.3,1.4s6.3-.6,6.3-1.4-2.9-1.4-6.3-1.4-6.3.6-6.3,1.4"/>
        <path class="cls-2" d="M84.4,373.8c-2.4,0-4.3.5-4.3,1.2s1.9,1.2,4.3,1.2,4.2-.6,4.2-1.2-1.9-1.2-4.2-1.2"/>
        <path class="cls-3" d="M83.2,297.8c3.2,1.2,4-31,0-31.4s-3.1,30.2,0,31.4"/>
        <path class="cls-3" d="M80.9,201.8c2.1,0,3.8-.3,3.8-.8s-1.7-.8-3.8-.8-3.8.4-3.8.8,1.7.8,3.8.8"/>
        <path class="cls-3" d="M92.7,165.6c0-.5-2.5-.9-5.5-.9s-5.5.4-5.5.9,2.5.9,5.5.9,5.5-.4,5.5-.9"/>
        <path class="cls-3" d="M91.7,174.4c0-.5-1.9-.8-4.2-.8s-4.3.3-4.3.8,1.9.8,4.3.8,4.2-.4,4.2-.8"/>
      </g>
    </g>
  </g>
</svg>
