<svg xmlns="http://www.w3.org/2000/svg" width="45.2mm" height="46.3mm" viewBox="0 0 128.2 131.3">
  <defs>
    <style>
      .cls-1 {
        fill: #7d7d82;
      }

      .cls-2 {
        fill: #f9c0a3;
      }

      .cls-3 {
        fill: #ffe59b;
      }

      .cls-4 {
        fill: #adddef;
      }

      .cls-5 {
        fill: #d2e094;
      }
    </style>
  </defs>
  <g id="Ebene_2" data-name="Ebene 2">
    <g id="Quadrat">
      <g>
        <path class="cls-1" d="M84.4,113.1a3.9,3.9,0,0,0,3.3-1.6c.5-.9.6-1.4.6-3.8V97.9c0-2.4-.1-2.9-.6-3.8a3.9,3.9,0,0,0-3.3-1.6A4,4,0,0,0,81,94.1c-.5.9-.6,1.4-.6,3.8v9.8c0,2.4.1,2.9.6,3.8A4,4,0,0,0,84.4,113.1ZM83.2,96.7c0-1.1.3-1.6,1.2-1.6s1.1.5,1.1,1.6v12.2c0,1.1-.3,1.6-1.1,1.6s-1.2-.5-1.2-1.6Z"/>
        <path class="cls-1" d="M80.6,120.9a.8.8,0,0,0,.9-.9.8.8,0,0,0-.8-.9.9.9,0,0,0-1,.9A.9.9,0,0,0,80.6,120.9Z"/>
        <path class="cls-1" d="M120.8,118.9l-1.7,1.4a.3.3,0,0,1-.1.2,1.6,1.6,0,0,0,.8.8h.2l1.7-1.4a.4.4,0,0,0,.1-.3c0-.1-.6-.8-.8-.8Z"/>
        <path class="cls-1" d="M119.6,113.1a3.9,3.9,0,0,0,3.3-1.6c.5-.9.6-1.4.6-3.8V97.9c0-2.4-.1-2.9-.6-3.8a3.9,3.9,0,0,0-3.3-1.6,4.1,4.1,0,0,0-3.4,1.6c-.5.9-.6,1.4-.6,3.8v9.8c0,2.4.1,2.9.6,3.8A4.1,4.1,0,0,0,119.6,113.1Zm-1.2-16.4c0-1.1.4-1.6,1.2-1.6s1.1.5,1.1,1.6v12.2c0,1.1-.3,1.6-1.1,1.6s-1.2-.5-1.2-1.6Z"/>
        <polygon class="cls-1" points="94.2 112.8 96.9 112.8 96.9 95.4 101.3 95.4 101.3 92.8 89.9 92.8 89.9 95.4 94.2 95.4 94.2 112.8"/>
        <polygon class="cls-1" points="106.6 112.8 109.4 112.8 109.4 95.4 113.8 95.4 113.8 92.8 102.4 92.8 102.4 95.4 106.6 95.4 106.6 112.8"/>
        <path class="cls-1" d="M19,118.5c-2.5,0-4.6,1.5-4.6,3.8a2.5,2.5,0,0,0,1.7,2.6h.2l.5-1c0-.1,0-.1-.1-.2a1.6,1.6,0,0,1-.8-1.4c0-1.2,1.3-2.3,3.1-2.3a3.4,3.4,0,0,1,3.7,3.4c0,1.9-1.1,3.4-2.9,3.4H19a3.3,3.3,0,0,0,.3-1.9v-3.4c0-.2-.2-.3-.4-.3h-.9c-.3,0-.4.1-.4.3s.1,2.3.1,3.5a3.2,3.2,0,0,1-.3,1.7H16.2c-.2,0-.2.1-.2.2a3.8,3.8,0,0,0,.1,1l.2.2H20c2.9,0,4.4-2.3,4.4-4.8S22.2,118.5,19,118.5Z"/>
        <path class="cls-1" d="M49.7,118.8H45.2a2.5,2.5,0,0,0-2.8,2.4,2.1,2.1,0,0,0,1.8,2.3h.1a4.8,4.8,0,0,0,.5-1.1h-.1a1.2,1.2,0,0,1-.8-1c0-.6.5-1,1.2-1h2a3.9,3.9,0,0,0-.2,1.7v.8h-.7c-.2,0-.3,0-.3.2v1a.3.3,0,0,0,.3.3h.7v.6c0,1-.4,1.9-1.3,1.9a1,1,0,0,1-.8-.3l-.2-.2c-.2,0-.8.9-.8,1.1a1.9,1.9,0,0,0,1.7.9c2,0,2.9-1.7,2.9-3.3v-.7h.9c.2,0,.2-.1.2-.3v-1c0-.2,0-.2-.2-.2h-.9v-1.2a5.3,5.3,0,0,1,.1-1.3h1.3l.2-.2c0-.2-.1-.8-.1-1.1Z"/>
        <path class="cls-1" d="M53.4,108.3h2.5l.5,4.5h2.8l-2.7-20H52.9l-2.7,20h2.7Zm1.3-11.9.9,9.3H53.7Z"/>
        <path class="cls-1" d="M123.5,124.8c-.1,0-.1,0-.1.1a2.5,2.5,0,0,1-2.5,1.7q-1.5,0-1.8-.9h.4c1.4,0,2.6-.7,2.6-2.2a1.8,1.8,0,0,0-2-1.8,2.9,2.9,0,0,0-2.8,3,.7.7,0,0,0,.1.5c-.3.4-.6.7-1,.7s-1.1-.9-1.4-1.3a.2.2,0,0,0-.2-.2c-.4,0-1.2.6-1.2.9a2.6,2.6,0,0,0,.7,1.2,6.1,6.1,0,0,1,.2,1.5c0,1-.3,1.8-.9,1.8s-.7-.8-.7-2.1V124c1.9-.7,3.4-2,3.4-3.5a2,2,0,0,0-2.1-2c-2,0-2.9,2-2.9,4.3V125c-.3.7-.9,1.5-1.5,1.5s-.7-.5-.7-1,.1-3,.1-3.2-.1-.4-.3-.4h-1a.3.3,0,0,0-.3.3v.2h0a3,3,0,0,0-1.8-.6c-1.7,0-2.8,1.3-2.8,3.2v.4a2.4,2.4,0,0,1-2.2,1.2,1.8,1.8,0,0,1-2-1.8c0-1,.6-1.6,1.3-1.6a.8.8,0,0,1,.8.7h.1c.3,0,1.2-.4,1.2-.6a1.9,1.9,0,0,0-2.1-1.6,3,3,0,0,0-3,3.1c0,.2.1.3.1.5s-.8,1.1-1.3,1.1-.7-.4-.7-1,.1-1.6.1-2a1.7,1.7,0,0,0-1.9-1.7,2.5,2.5,0,0,0-2.3,1.5H91a4.1,4.1,0,0,0,.1-1c0-.3-.1-.4-.3-.4h-1c-.2,0-.3.1-.3.4V125a2.6,2.6,0,0,1-2.5,1.6,1.8,1.8,0,0,1-1.8-.9h.4c1.5,0,2.7-.7,2.7-2.2a1.8,1.8,0,0,0-2-1.8,2.8,2.8,0,0,0-2.8,3v.6c-.3.5-.8,1.1-1.3,1.1s-.8-.4-.8-1.1.1-2.4.1-3.1a.4.4,0,0,0-.4-.4h-1c-.2,0-.3.2-.3.4V125a2.6,2.6,0,0,1-2.4,1.6,1.8,1.8,0,0,1-1.9-2.1V124c1.8-.6,3.4-1.9,3.4-3.5a1.9,1.9,0,0,0-2-2c-2,0-2.9,2-2.9,4.4v2.5c-.3.5-.8,1.1-1.3,1.1s-.8-.4-.8-1.1.1-2.4.1-3.1a.4.4,0,0,0-.4-.4h-1c-.2,0-.3.2-.3.4V125c-.3.6-.9,1.5-1.5,1.5s-.7-.4-.7-.9.1-1.7.1-2.1a1.7,1.7,0,0,0-1.8-1.7,2.6,2.6,0,0,0-2.4,1.6h0v-.2a1.5,1.5,0,0,0-1.5-1.4,2.5,2.5,0,0,0-2.3,1.5h0v-.9c0-.2,0-.4-.3-.4h-1c-.2,0-.3.1-.3.4V125c-.3.7-.8,1.5-1.5,1.5s-.7-.5-.7-1,.2-3,.2-3.2-.1-.4-.3-.4h-1a.3.3,0,0,0-.3.3v.2h-.1a3,3,0,0,0-1.8-.6,2.9,2.9,0,0,0-2.8,3.2c0,1.7,1,3,2.5,3a2.3,2.3,0,0,0,2.2-1.4h.1c0,.8.7,1.3,1.6,1.3a2.6,2.6,0,0,0,1.9-.9v.4a.3.3,0,0,0,.3.3h1a.3.3,0,0,0,.3-.3v-.6c0-1.3.6-3.7,1.8-3.7s.6.3.6,1v3.3a.3.3,0,0,0,.3.3h1c.2,0,.3-.1.3-.4,0-2.4.8-4.2,1.7-4.2s.6.3.6,1-.1,1.2-.1,1.9a2,2,0,0,0,2,1.9,2.7,2.7,0,0,0,2.1-1.1,1.8,1.8,0,0,0,1.8,1.1,2.9,2.9,0,0,0,2.3-1.3,2.9,2.9,0,0,0,2.6,1.3,3.8,3.8,0,0,0,2.8-1.2,1.9,1.9,0,0,0,1.8,1.2,2.9,2.9,0,0,0,2.3-1.3,3.1,3.1,0,0,0,2.7,1.3,4.1,4.1,0,0,0,2.7-1v.4c0,.3.1.4.3.4h1c.2,0,.3-.1.3-.4V127c0-1.5.6-3.8,1.7-3.8s.8.4.8.9-.1,1.3-.1,2a1.9,1.9,0,0,0,2,1.9,2.7,2.7,0,0,0,2.2-1.3,3.2,3.2,0,0,0,2.7,1.3,4.2,4.2,0,0,0,3-1.2,2.4,2.4,0,0,0,2.1,1.2,2.5,2.5,0,0,0,2.2-1.4h0c0,.8.7,1.3,1.6,1.3a2.7,2.7,0,0,0,2-.9v.8c0,2.1.7,3.4,2.2,3.4s2.4-1.5,2.4-3-.1-.8-.1-1h.5a1.8,1.8,0,0,0,1.5-.7,3.2,3.2,0,0,0,2.8,1.4,3.6,3.6,0,0,0,3.7-2.6.1.1,0,0,0,.1-.1Zm-9.3-4.9a.5.5,0,0,1,.6.6c0,.8-.9,1.7-1.9,2.1C112.9,121,113.4,119.9,114.2,119.9Zm-37.3,0a.5.5,0,0,1,.6.6c0,1-1.1,1.8-2,2.1C75.6,121.3,76,119.9,76.9,119.9Zm-23.7,6.6a1.3,1.3,0,0,1-1.2-1.4,1.7,1.7,0,0,1,1.7-1.9,2,2,0,0,1,1.3.6C55,124.8,54.4,126.5,53.2,126.5Zm31.8-2a1.5,1.5,0,0,1,1.3-1.6.7.7,0,0,1,.7.7c0,.7-.8,1-1.6,1H85Zm20.8,2a1.3,1.3,0,0,1-1.2-1.4,1.8,1.8,0,0,1,1.7-1.9,1.8,1.8,0,0,1,1.3.6C107.6,124.8,107,126.5,105.8,126.5Zm13-2a1.5,1.5,0,0,1,1.3-1.6.7.7,0,0,1,.7.7c0,.7-.8,1-1.6,1h-.4Z"/>
        <polygon class="cls-1" points="47.5 112.8 47.5 92.8 44.7 92.8 44.7 104.6 41 92.8 38.6 92.8 38.6 112.8 41.4 112.8 41.4 102.3 44.7 112.8 47.5 112.8"/>
        <path class="cls-1" d="M17.7,108.3h2.6l.5,4.5h2.7l-2.6-20H17.3l-2.7,20h2.7ZM19,96.4l1,9.3H18Z"/>
        <polygon class="cls-1" points="28.9 102.3 32.2 112.8 35 112.8 35 92.8 32.2 92.8 32.2 104.6 28.5 92.8 26.1 92.8 26.1 112.8 28.9 112.8 28.9 102.3"/>
        <path class="cls-1" d="M36.8,123a12.4,12.4,0,0,1-2-1.8.1.1,0,0,0-.1-.1c-.3,0-1.3.6-1.3.9s.1.7.1,1.2a6,6,0,0,1-.4,2.1c-.4.6-.8,1.2-1.4,1.2s-.7-.5-.7-1,.1-3,.1-3.2-.1-.4-.3-.4h-1a.3.3,0,0,0-.3.3v.2h0a3,3,0,0,0-1.8-.6c-1.7,0-2.8,1.3-2.8,3.2s1,3,2.5,3a2.4,2.4,0,0,0,2.2-1.4h0c0,.8.7,1.3,1.7,1.3s2.4-1.4,2.8-2.3a7.3,7.3,0,0,0,.5-2,4.3,4.3,0,0,1-.1-.5h.1l1.2,1c.5.4.9.8.9,1.3a1,1,0,0,1-1.1,1,3.9,3.9,0,0,1-1.1-.3,2.4,2.4,0,0,0-.6,1,2.4,2.4,0,0,0,1.9.8,2.4,2.4,0,0,0,2.6-2.5A3.1,3.1,0,0,0,36.8,123Zm-9.1,3.5c-.7,0-1.1-.6-1.1-1.4a1.7,1.7,0,0,1,1.6-1.9,1.8,1.8,0,0,1,1.3.6C29.5,124.8,29,126.5,27.7,126.5Z"/>
        <path class="cls-1" d="M70.2,120a.9.9,0,0,0,.9.9.8.8,0,0,0,.9-.9.8.8,0,0,0-.8-.9A.9.9,0,0,0,70.2,120Z"/>
        <path class="cls-1" d="M64.6,106.1c0,2.2,1.8,3.4,4.2,3.4a5.1,5.1,0,0,0,3.3-1.2,6.9,6.9,0,0,0,1.8,1c.3,0,.9-1.2.9-1.4s0-.2-.2-.3l-1.3-.8a4.5,4.5,0,0,0,.5-1.9,3.4,3.4,0,0,0-1-2.7c-.3,0-1.4.6-1.4.9a1,1,0,0,1,.1.3,3.3,3.3,0,0,1,.4,1.5,1.7,1.7,0,0,1-.1.7,22.3,22.3,0,0,1-2.6-2.7h.1c1.7-1.1,2.8-2.2,2.8-3.7A2.9,2.9,0,0,0,69,96.4a3.2,3.2,0,0,0-3.3,3.4,6.1,6.1,0,0,0,.9,2.8A4.4,4.4,0,0,0,64.6,106.1ZM69,98.3a1,1,0,0,1,1.1,1c0,.8-.5,1.3-1.9,2.2a4.1,4.1,0,0,1-.5-1.8A1.3,1.3,0,0,1,69,98.3Zm-1.4,5.8a21.3,21.3,0,0,0,3,3,2.5,2.5,0,0,1-1.7.6c-1.3,0-2.3-.7-2.3-1.8A2.4,2.4,0,0,1,67.6,104.1Z"/>
      </g>
      <g id="Otto">
        <g id="Pink">
          <path class="cls-2" d="M91.2,51.4a2,2,0,0,0-2.1,2,2.1,2.1,0,0,0,2.1,2.1,2.1,2.1,0,1,0,0-4.1Z"/>
          <path class="cls-2" d="M114,51.4a2,2,0,0,0-2,2,2,2,0,0,0,2,2.1,2.1,2.1,0,0,0,2.1-2.1A2,2,0,0,0,114,51.4Z"/>
        </g>
        <g id="Yellow">
          <path class="cls-3" d="M98.5,30c-4.1-2.5-9.7-2.1-14.2,1s-4,6.3-4,8.1a5.4,5.4,0,0,0,1.9,4.5s7.7,1.9,11.5-.3a88.7,88.7,0,0,0,9.9-6.9A11.8,11.8,0,0,0,98.5,30Z"/>
          <path class="cls-3" d="M124,33.9l-7.5-2.8a10.1,10.1,0,0,0-5.2-.9c-5.2.7-7.5,5.9-7.7,6.2A27.1,27.1,0,0,0,124,45.5Z"/>
          <path class="cls-3" d="M74,59.3a5.9,5.9,0,0,0-3.8,1.3,6.1,6.1,0,0,0,3.5,1.9,5.8,5.8,0,0,0,3.8-1.2A6.2,6.2,0,0,0,74,59.3Z"/>
          <path class="cls-3" d="M87.1,61.1a4.4,4.4,0,0,0-.2,2.9,3.9,3.9,0,0,0,2.2,1.9,3.7,3.7,0,0,0,.2-2.9A4,4,0,0,0,87.1,61.1Z"/>
          <path class="cls-3" d="M82.8,62.4a4.3,4.3,0,0,0-1.1,2.8,4.2,4.2,0,0,0,1.6,2.4,3.6,3.6,0,0,0,1-2.7A4.1,4.1,0,0,0,82.8,62.4Z"/>
          <path class="cls-3" d="M76.9,64.4a3.9,3.9,0,0,0,.5,2.8,3.5,3.5,0,0,0,2-2,4.2,4.2,0,0,0-.5-2.9A3.8,3.8,0,0,0,76.9,64.4Z"/>
          <path class="cls-3" d="M78.7,59.4a3.7,3.7,0,0,0,.2-2.9,4.3,4.3,0,0,0-2.3-2,3.7,3.7,0,0,0-.2,2.9A4,4,0,0,0,78.7,59.4Z"/>
        </g>
        <path id="Blue" class="cls-4" d="M126.8,23.7,90.5,13.3,87.6,23.4C83,24.7,80,26.8,80,29.2c0,3.9,7.9,7.1,17.7,7.1,8,0,14.8-2.2,17-5.1l9.2,2.7Z"/>
        <g id="Lines">
          <path class="cls-1" d="M114.8,46.7a.8.8,0,0,0-.8.2,3,3,0,0,1-2.7,1.7,3.3,3.3,0,0,1-2.4-1.2.5.5,0,0,0-.8-.1.6.6,0,0,0-.1.8,4.2,4.2,0,0,0,7-.6A.5.5,0,0,0,114.8,46.7Z"/>
          <path class="cls-1" d="M96.4,47.4A3.3,3.3,0,0,1,94,48.6a3.1,3.1,0,0,1-2.7-1.7.8.8,0,0,0-.8-.2.5.5,0,0,0-.2.8,4.2,4.2,0,0,0,7,.6.5.5,0,0,0-.1-.8A.5.5,0,0,0,96.4,47.4Z"/>
          <path class="cls-1" d="M78.4,60.2l.6.2.4-.6a4.9,4.9,0,0,0,.3-3.6,6,6,0,0,0-2.8-2.5l-.6-.2-.4.6a4.8,4.8,0,0,0-.3,3.6A5.6,5.6,0,0,0,78.4,60.2Zm-1.3-4.6a2.2,2.2,0,0,1,1.1,1.2,1.9,1.9,0,0,1,0,1.5,3.2,3.2,0,0,1-1.1-1.2A1.9,1.9,0,0,1,77.1,55.6Z"/>
          <path class="cls-1" d="M128.2,24.1A1.5,1.5,0,0,0,128,23a1.4,1.4,0,0,0-.8-.7L90.9,11.9a2,2,0,0,0-1.1.1,1.3,1.3,0,0,0-.7.9l-2.7,9.4c-4.6,1.4-7.9,3.7-7.9,6.9a5.2,5.2,0,0,0,1.9,3.9,23.5,23.5,0,0,0-1.1,7.1,22.9,22.9,0,0,0,9.1,18.4,20.2,20.2,0,0,1-3.6,1.7,14.6,14.6,0,0,1-6.6.4h-.1a6.7,6.7,0,0,0-4-2.2A6.3,6.3,0,0,0,69.7,60l-.6.5.5.6a6.6,6.6,0,0,0,4.1,2.2h.4a6.5,6.5,0,0,0,3.4-1,3.5,3.5,0,0,0-1.3,1.8,4.9,4.9,0,0,0,.5,3.6l.4.5.6-.2a5.4,5.4,0,0,0,2.5-2.6,4.8,4.8,0,0,0-.4-3.1H82a4.1,4.1,0,0,0-1,3,4.4,4.4,0,0,0,1.9,3.1l.5.3.5-.4a5.3,5.3,0,0,0,1.2-3.4A4.2,4.2,0,0,0,83.5,62l1.7-.4,1-.4a4.6,4.6,0,0,0,0,3.1,4.9,4.9,0,0,0,2.6,2.4l.7.2.3-.6a5.1,5.1,0,0,0,.2-3.6,4.6,4.6,0,0,0-2.2-2.2l1.4-.8.4-.2a28.7,28.7,0,0,0,4.9,2.6c.8,2.6.1,5.1-1.9,7.4h-.4l-4.7.7a.8.8,0,0,0-.7.8v.3a11.9,11.9,0,0,0-6.8,11.1,1.5,1.5,0,0,0,1.5,1.5h0a1.6,1.6,0,0,0,1.5-1.6,8.5,8.5,0,0,1,3.4-7.3l-.8,7.7a.9.9,0,0,0,.8,1,1,1,0,0,0,1-.8l1.2-11.1,3.1-.4L93.3,81a.9.9,0,0,0,.9.7h16.3a1,1,0,0,0,.9-.8l1.7-9.7,3.1.4,1.2,11.1a1.1,1.1,0,0,0,.9.8h.1a.9.9,0,0,0,.8-1l-.8-7.8a9.2,9.2,0,0,1,3.5,7.4,1.5,1.5,0,0,0,1.4,1.6h0a1.5,1.5,0,0,0,1.5-1.5A11.9,11.9,0,0,0,118,71.2v-.3a.8.8,0,0,0-.7-.8l-4.7-.7H112a7.7,7.7,0,0,1-2.1-7.2,23.3,23.3,0,0,0,16-22.1,22.5,22.5,0,0,0-.7-5.8h.1ZM73.8,61.8a4.9,4.9,0,0,1-2.3-1.1,3.9,3.9,0,0,1,4.8.5A5.7,5.7,0,0,1,73.8,61.8Zm4.9,3.1a2.4,2.4,0,0,1-1,1.2,2.6,2.6,0,0,1,0-1.5,2.2,2.2,0,0,1,.9-1.2A3.8,3.8,0,0,1,78.7,64.9Zm4.9.1a2.9,2.9,0,0,1-.4,1.4,2.7,2.7,0,0,1-.7-1.3,3.3,3.3,0,0,1,.4-1.5A3.1,3.1,0,0,1,83.6,65Zm5-1.7a2.5,2.5,0,0,1,0,1.5,2.7,2.7,0,0,1-1-1.1,2.6,2.6,0,0,1,0-1.5A2.7,2.7,0,0,1,88.6,63.3ZM81.4,29.2c0-1.4,2.2-3.1,6.1-4.2l24.1,6.9c-2.6,1.6-7.5,2.9-13.9,2.9C87.6,34.8,81.4,31.5,81.4,29.2Zm.8,11a19.1,19.1,0,0,1,.8-5.4c3.7,1.9,9.3,2.9,14.7,2.9h2.5c-3.4,2.9-8.9,5.4-17.8,5.1A21.1,21.1,0,0,1,82.2,40.2ZM111,72.9,109.8,80H94.9l-1.3-7.1a11.6,11.6,0,0,0,8.9,4A10.9,10.9,0,0,0,111,72.9ZM97.7,63a26.3,26.3,0,0,0,4.9.5,19.3,19.3,0,0,0,4.2-.4,10.5,10.5,0,0,0,2.3,7.5,8.1,8.1,0,0,1-6.6,3.3,8.5,8.5,0,0,1-6.9-3.4A10.4,10.4,0,0,0,97.7,63Zm4.9-2.4A20.5,20.5,0,0,1,92.8,58h0a15.7,15.7,0,0,1,7.2-.3h.2a5.2,5.2,0,0,0,2.3.6h0a4.9,4.9,0,0,0,3.4-1.6.5.5,0,0,0-.1-.8c-.2-.2-.5-.2-.8.1a3.9,3.9,0,0,1-2.5,1.2h0a3.5,3.5,0,0,1-1.8-.6l-.4-.3-.5-.4a.5.5,0,0,0-.8-.1c-.1.1-.2.2-.2.3a16.8,16.8,0,0,0-6.4.6l-1.1.4A20.7,20.7,0,0,1,83,45.8h.8c10.3,0,16.4-3.7,19.9-7.5a24.3,24.3,0,0,0,6.7,5.5,20.3,20.3,0,0,0,10.3,2.7H122A20.5,20.5,0,0,1,102.6,60.6Zm20.1-17.2a18,18,0,0,1-10.8-2.1,27.1,27.1,0,0,1-5.5-4.4c3.7-.8,6.9-2.2,8.8-4l7.1,2a23.3,23.3,0,0,1,.7,5.3A16.6,16.6,0,0,1,122.7,43.4Zm.1-11.4L89.4,22.5l2.1-7.3,33.4,9.5Z"/>
        </g>
      </g>
      <g id="Anna">
        <g id="Yellow-2" data-name="Yellow">
          <path class="cls-3" d="M13.5,38.7a12.7,12.7,0,0,0,1.9,6.1s7.7.4,11.7-1.8A99.6,99.6,0,0,0,37,36l-8.1-8.2S13.5,35.5,13.5,38.7Z"/>
          <path class="cls-3" d="M58.4,43.5s.5-6.5-.9-10C49.6,13.6,33.9,18.2,33.9,18.2L37,36a28,28,0,0,0,10.4,7.2A16.1,16.1,0,0,0,58.4,43.5Z"/>
          <path class="cls-3" d="M19.4,54.3a64.7,64.7,0,0,0-5-8.5s-7,26.6,11.4,26.3c10.2-.1,7.5-10,7.5-10S21.9,59.3,19.4,54.3Z"/>
          <path class="cls-3" d="M59.1,45.8A58.9,58.9,0,0,0,54,54.3c-2.4,5-13.9,7.8-13.9,7.8s-2.7,9.9,7.6,10C66.1,72.4,59.1,45.8,59.1,45.8Z"/>
          <path class="cls-3" d="M5.6,34.8a3.4,3.4,0,1,0,0,6.8,3.4,3.4,0,0,0,0-6.8Z"/>
          <path class="cls-3" d="M45.5,10.8a4.3,4.3,0,0,0,.8-5.9,4.3,4.3,0,0,0-6-.9,4.4,4.4,0,0,0-.8,6A4.3,4.3,0,0,0,45.5,10.8Z"/>
        </g>
        <g id="Blue-2" data-name="Blue">
          <path class="cls-4" d="M14,33.3l2-1.1s-3.5-3.5-7.5-3.3-7,4-7,4S4.9,36.4,9,36.2l.5-.3-.6.7c-2.4,3.3-1.3,8-1.3,8s4.9-.5,7.3-3.8,1.3-8,1.3-8A13.3,13.3,0,0,0,14,33.3Z"/>
          <path class="cls-4" d="M41,11.5a2.2,2.2,0,0,0,.1-.8c-.1-5.1-4.7-8.8-4.7-8.8S31.9,5.9,32,11s4.7,8.7,4.7,8.7a11.3,11.3,0,0,0,1.4-1.5l-1,2.5s6,.8,9.8-2.3,3.9-9.1,3.9-9.1S45,8.4,41,11.5Z"/>
        </g>
        <g id="Pink-2" data-name="Pink">
          <path class="cls-2" d="M30,13c-.5-.4-4.6-3.4-8-2s-4.3,3.5-5,4.4l-1.3,1.4A20.6,20.6,0,0,1,12.5,19c-1.9,1.4-1.7,4.7-1.6,5.3.3,4.8,5.9,9.8,11.9,9.8s12-4.2,11.7-10.7C34.5,22.4,34.6,16.5,30,13Z"/>
          <ellipse class="cls-2" cx="54.5" cy="22.2" rx="7.4" ry="7.2"/>
          <path class="cls-2" d="M25,51.1a2,2,0,0,0-2,2.1,2.1,2.1,0,1,0,4.1,0A2.1,2.1,0,0,0,25,51.1Z"/>
          <path class="cls-2" d="M48.1,51.1A2.1,2.1,0,0,0,46,53.2a2.1,2.1,0,0,0,2.1,2.1,2.2,2.2,0,0,0,2.1-2.1A2.1,2.1,0,0,0,48.1,51.1Z"/>
        </g>
        <g id="Green">
          <path class="cls-5" d="M61,3.7S58.9,6,59.1,8.5a6.3,6.3,0,0,0,2.4,4.3,7.6,7.6,0,0,0,2-4.8A7,7,0,0,0,61,3.7Z"/>
          <path class="cls-5" d="M64.2,39a7.1,7.1,0,0,0,2.1,4.7,6.9,6.9,0,0,0,4.9,1.1A7.8,7.8,0,0,0,69,40.2,6.4,6.4,0,0,0,64.2,39Z"/>
          <path class="cls-5" d="M47.9,37.6a6.6,6.6,0,0,0,.5,5,7.5,7.5,0,0,0,4.4,2.8,6.1,6.1,0,0,0-.4-4.9C51,38.3,47.9,37.6,47.9,37.6Z"/>
          <path class="cls-5" d="M53.1,28a8.4,8.4,0,0,0-5.5,2.2c-2,2.1-1.8,5.5-1.8,5.5s3.5,0,5.5-2.1A8,8,0,0,0,53.1,28Z"/>
          <path class="cls-5" d="M40.7,23.4a8.7,8.7,0,0,0-4.8,4.4l-.2-.2S32.3,30,32,33.2s2.5,6.1,2.5,6.1,3.4-2.2,3.7-5.5a7.5,7.5,0,0,0-1.8-5.3c1.1.5,3.5,1.5,5.8.8s4.9-4.7,4.9-4.7S43.9,22.4,40.7,23.4Z"/>
          <path class="cls-5" d="M56.5,31.4a5.2,5.2,0,0,0,.2,4.1,6.7,6.7,0,0,0,3.4-2.8,5.2,5.2,0,0,0-.2-4.1A6.1,6.1,0,0,0,56.5,31.4Z"/>
          <path class="cls-5" d="M68,30.1a5.9,5.9,0,0,0,.5-4.3,6.4,6.4,0,0,0-3.8,2.4,5.9,5.9,0,0,0-.5,4.3A7,7,0,0,0,68,30.1Z"/>
          <path class="cls-5" d="M72.3,9.8c-3.9,3.3-4.1,9.4-4.1,9.4s6.1.8,10-2.5,4-9.3,4-9.3S76.2,6.5,72.3,9.8Z"/>
        </g>
        <g id="Lines-2" data-name="Lines">
          <path class="cls-1" d="M69.6,39.4A7.3,7.3,0,0,0,64,38l-.9.2V39a8,8,0,0,0,2.5,5.4,6.9,6.9,0,0,0,4.5,1.5h2v-.9C72.1,44.6,71.9,41.3,69.6,39.4ZM67,42.9a5.4,5.4,0,0,1-1.7-3,4.9,4.9,0,0,1,3.1,1,5.9,5.9,0,0,1,1.6,3A4.5,4.5,0,0,1,67,42.9Z"/>
          <path class="cls-1" d="M48.8,46.5a.7.7,0,0,0-.8.3,3,3,0,0,1-2.7,1.6,2.9,2.9,0,0,1-2.4-1.2.6.6,0,0,0-.8-.1.5.5,0,0,0-.1.8,3.9,3.9,0,0,0,3.3,1.6A4,4,0,0,0,49,47.3.5.5,0,0,0,48.8,46.5Z"/>
          <path class="cls-1" d="M62.7,56.3c0-3.6-.9-7.8-2.8-13.1.1-1,.2-2.1.2-3.2a23.8,23.8,0,0,0-.3-3.9,14.6,14.6,0,0,0,4.3-2.6h.3a7.3,7.3,0,0,0,4.4-2.8,6.1,6.1,0,0,0,.6-5.1l-.2-.8h-.9c-.1.1-3,.6-4.5,2.9a6.8,6.8,0,0,0-.6,5,11.2,11.2,0,0,1-3.6,2.2A6.6,6.6,0,0,0,61,33.1a5.6,5.6,0,0,0-.2-4.8,8.5,8.5,0,0,0,2.6-6.1,8.8,8.8,0,0,0-8.9-8.7,7.7,7.7,0,0,0-3.4.7,17.1,17.1,0,0,0,.8-4.9V8.4L51,8.2a15.8,15.8,0,0,0-2.9-.1,5.6,5.6,0,0,0-1-3.8,5.3,5.3,0,0,0-7.4-1h0A19.4,19.4,0,0,0,37.3.8l-1-.8-.9.8c-.2.2-5,4.5-4.9,10.2v.5a8.2,8.2,0,0,0-6.7-1.9,10.6,10.6,0,0,0-8.2,5.2.8.8,0,0,0-.2.5c-4.3.7-6.2,5.7-6,9.1a10.4,10.4,0,0,0,.7,3.5,4.7,4.7,0,0,0-1.7-.1C3.8,28,.7,32.1.6,32.2L0,33l.7.7,1.7,1.5a4.5,4.5,0,0,0-1.2,3,4.4,4.4,0,0,0,4.4,4.4h.3a10.2,10.2,0,0,0,.3,2.4l.3,1.2H7.8a12.9,12.9,0,0,0,5.4-1.8,39.8,39.8,0,0,0-2,12.1c0,6,2.9,12.9,7.9,15.9a11.8,11.8,0,0,0-5,10.1,1.5,1.5,0,0,0,1.5,1.5h0a1.6,1.6,0,0,0,1.5-1.6,8.8,8.8,0,0,1,5.5-8.6H25a13.6,13.6,0,0,0,2.9-.3,12.4,12.4,0,0,0,8.6,3.5,12.2,12.2,0,0,0,8.7-3.7,15,15,0,0,0,3.7.5h2a9.1,9.1,0,0,1,5.5,8.6,1.5,1.5,0,0,0,1.4,1.6h.1a1.6,1.6,0,0,0,1.5-1.5,12,12,0,0,0-4.9-10C59.7,69.4,62.7,62.4,62.7,56.3Zm2.8-27.6a4.8,4.8,0,0,1,2.2-1.6,3.6,3.6,0,0,1-.5,2.4A4.9,4.9,0,0,1,65,31.2,3.9,3.9,0,0,1,65.5,28.7ZM36.6,60.5A20.6,20.6,0,0,1,17.1,46.3h1.3a20.6,20.6,0,0,0,10.4-2.7,33,33,0,0,0,4.5-3.3.1.1,0,0,1,.1.1l.9.8,1-.6c0-.1.7-.5,1.5-1.2a25.1,25.1,0,0,0,12.8,5.7,8.6,8.6,0,0,0,3.1,1.3l.8.2.3-.8v-.2h2.5A20.4,20.4,0,0,1,36.6,60.5ZM17.9,34.8a15.7,15.7,0,0,0,4.9.8,15.2,15.2,0,0,0,7.7-2,7.7,7.7,0,0,0,1.1,4.3A37.6,37.6,0,0,1,27.3,41a17.9,17.9,0,0,1-10.9,2.2,8.8,8.8,0,0,1-.2-1.6A11.3,11.3,0,0,0,17.9,34.8Zm17.8-14h.1l.2.2a1.3,1.3,0,0,0,.9.7h3.8l-.5.2a8.6,8.6,0,0,0-4.3,3.1,10.9,10.9,0,0,0,.1-1.8A19,19,0,0,0,35.7,20.8Zm5.4,4a6.7,6.7,0,0,1,4,.4,6.3,6.3,0,0,1-3.4,2.7,6.3,6.3,0,0,1-3.9-.4A6.4,6.4,0,0,1,41.1,24.8ZM55.8,35.9h0a31.2,31.2,0,0,1-4.9.6l-2.8-.2A7.4,7.4,0,0,0,52,34.2a7.2,7.2,0,0,0,1.8-3.3h1.8A6.1,6.1,0,0,0,55.8,35.9ZM47,37.3a7.1,7.1,0,0,0-.1,4.2,20.2,20.2,0,0,1-8.3-4.4,6.8,6.8,0,0,0,1.1-3.2v-1a10.1,10.1,0,0,0,1.8,1.5,13.5,13.5,0,0,0,4.9,2.7l.6.2Zm2.2,4.8a5.4,5.4,0,0,1-.5-3.2A5.7,5.7,0,0,1,51.6,41a5.4,5.4,0,0,1,.5,3.2A6.4,6.4,0,0,1,49.2,42.1Zm1.4-9.2a7.2,7.2,0,0,1-3.7,1.7,5.9,5.9,0,0,1,1.4-3.7A4.8,4.8,0,0,1,50,29.7l1.8.8A5,5,0,0,1,50.6,32.9Zm-3.7-3.4a9,9,0,0,0-2.1,5.8A18.9,18.9,0,0,1,39.5,31h1a7.6,7.6,0,0,0,2.1-.3,9.4,9.4,0,0,0,4.6-3.5l1,1.1Zm-1.3-7.3a9.6,9.6,0,0,0-3.5-.5,16.9,16.9,0,0,0,3.6-1.2,9.1,9.1,0,0,0-.1,1.7ZM57.2,40a21.1,21.1,0,0,1-.2,2.6,14,14,0,0,1-2.9,0,6.2,6.2,0,0,0-.9-2.7,6.3,6.3,0,0,0-2.4-2.2h.1a43.2,43.2,0,0,0,6-.7A13.9,13.9,0,0,1,57.2,40Zm2-7.7a4.9,4.9,0,0,1-2,1.8,3.8,3.8,0,0,1,.2-2.3,4.9,4.9,0,0,1,1.9-1.9A3.3,3.3,0,0,1,59.2,32.3ZM52.4,17.2l.4-.5,1.7-.2a5.8,5.8,0,0,1,5.9,5.7v.3a5,5,0,0,1-1.8,1.7,3.5,3.5,0,0,0,.7-2,3.6,3.6,0,0,0-3.6-3.6,3.5,3.5,0,0,0-3.3,2.1A5.2,5.2,0,0,1,52.4,17.2Zm4.9,5a1.6,1.6,0,0,1-1.6,1.6,1.6,1.6,0,1,1,0-3.2A1.6,1.6,0,0,1,57.3,22.2ZM52,24.4a6.1,6.1,0,0,0,3.4,2.5h1.1l1.6-.2a6.4,6.4,0,0,1-3.6,1.1h-.4l-1.2-.2-1.3-.5a6.1,6.1,0,0,1-2.7-3h0a4,4,0,0,1-.4-1.8,5.6,5.6,0,0,1,1.7-3.9A8.7,8.7,0,0,0,52,24.4ZM40.9,4.8h0a3.6,3.6,0,0,1,2-.6,3,3,0,0,1,2.6,1.3A3.1,3.1,0,0,1,46,8.3a13,13,0,0,0-3.6,1A10.1,10.1,0,0,0,40.8,5C40.9,4.9,40.9,4.9,40.9,4.8Zm1.6,7.1a12.8,12.8,0,0,1,7.1-1.5c-.2,1.6-.9,5-3.4,7.1s-5.4,2.1-7.3,2.1A14.6,14.6,0,0,0,42.5,11.9ZM36.4,4c1.2,1.3,3.1,3.8,3.2,6.7s-1.8,5.5-2.9,6.9c-1.3-1.3-3.2-3.8-3.2-6.6S35.3,5.4,36.4,4Zm-3,29.4a7.5,7.5,0,0,1,2.1-3.7,6.3,6.3,0,0,1,1.3,3.9,6.7,6.7,0,0,1-2.1,3.7A6.3,6.3,0,0,1,33.4,33.4ZM31.7,18.1A12.6,12.6,0,0,1,33,23.4a8.5,8.5,0,0,1-2.2,6.2,11.3,11.3,0,0,1-8,3,11.6,11.6,0,0,1-5.4-1.2h-.3a13.7,13.7,0,0,1-2.6-2l2.1.2a15.7,15.7,0,0,0,10-4.1C29.8,22.6,31.2,20.1,31.7,18.1ZM21.1,23.8a2.7,2.7,0,0,1,5.3-.9l-1.1,1A14.1,14.1,0,0,1,22.2,26a3,3,0,0,1-1-1.4A5.4,5.4,0,0,1,21.1,23.8Zm-2.8-7.7a7.8,7.8,0,0,1,5.9-3.5,5.4,5.4,0,0,1,4.6,1.3l.9,1.1a3.6,3.6,0,0,1,.2,1,7.7,7.7,0,0,1-2.1,5.3,4.8,4.8,0,0,0-4-2.2,4.8,4.8,0,0,0-4.7,4.4A7.2,7.2,0,0,1,18.3,16.1Zm-3.7,2.6a11,11,0,0,0,4,8.6,7.5,7.5,0,0,1-4.8-.4l-1.1-.6a15.5,15.5,0,0,1-.4-2.1C12.2,22.7,13,19.9,14.6,18.7ZM5.9,40.5H5.6a2.4,2.4,0,0,1-2.4-2.4,2.6,2.6,0,0,1,1-2,10.8,10.8,0,0,0,2.7,1A11.2,11.2,0,0,0,5.9,40.5Zm.4-5.9a8.4,8.4,0,0,1-1.6-.7L3.1,32.8A9.3,9.3,0,0,1,8.5,30a7.7,7.7,0,0,1,3.4.8L13.1,32a12.5,12.5,0,0,0-4.7,2.9A6.1,6.1,0,0,1,6.3,34.6Zm2.6,8.2V42a7.3,7.3,0,0,1,.3-3.4,4.4,4.4,0,0,1,1-1.6,7.1,7.1,0,0,1,4.7-2.4,8.2,8.2,0,0,1-1.2,5.3A8,8,0,0,1,8.9,42.8ZM23.6,70.7c-5.7-.8-9.5-8.1-9.5-14.4a29.6,29.6,0,0,1,.9-7.2A23.5,23.5,0,0,0,31.9,63a5.3,5.3,0,0,1-.7,5.2C29.7,70.1,26.6,71.1,23.6,70.7ZM36.5,74A9.2,9.2,0,0,1,31,72.1,6.4,6.4,0,0,0,33.5,70a8,8,0,0,0,1.6-6.6h3.7A8,8,0,0,0,40.4,70a7,7,0,0,0,2,1.8A9.2,9.2,0,0,1,36.5,74Zm13.8-3.3c-3,.4-6.1-.6-7.6-2.5a5.4,5.4,0,0,1-.7-5.4A23.6,23.6,0,0,0,58.5,48.5a30.9,30.9,0,0,1,1.3,7.8C59.8,62.6,56,69.9,50.3,70.7Z"/>
          <path class="cls-1" d="M30.3,47.2a3.1,3.1,0,0,1-5.2-.4.7.7,0,0,0-.8-.3.5.5,0,0,0-.2.8,4.1,4.1,0,0,0,3.7,2.2,4.3,4.3,0,0,0,3.4-1.6.6.6,0,0,0-.1-.8A.6.6,0,0,0,30.3,47.2Z"/>
          <path class="cls-1" d="M39.2,55.7A3.9,3.9,0,0,1,36.6,57h0a3.5,3.5,0,0,1-2.7-1.4.6.6,0,0,0-.8,0,.5.5,0,0,0-.1.8,5.7,5.7,0,0,0,3.6,1.7h0a5.7,5.7,0,0,0,3.5-1.6.6.6,0,0,0-.9-.8Z"/>
          <path class="cls-1" d="M60.9,13.6l.7.5.6-.6A8.4,8.4,0,0,0,64.5,8a7.9,7.9,0,0,0-2.9-5.1l-.7-.5-.6.6c-.1.1-2.4,2.6-2.2,5.5A7.3,7.3,0,0,0,60.9,13.6Zm.2-8.4a5,5,0,0,1,1.4,2.9,5.7,5.7,0,0,1-1.1,3.3,4.6,4.6,0,0,1-1.3-3A5.5,5.5,0,0,1,61.1,5.2Z"/>
          <path class="cls-1" d="M82.4,6.4c-.3,0-6.5-.9-10.8,2.7s-4.3,9.8-4.4,10V20H70c2.2,0,6-.4,8.8-2.7,4.3-3.7,4.4-9.9,4.4-10.1V6.5Zm-4.8,9.5c-2.7,2.3-6.5,2.4-8.3,2.3.2-1.7,1-5.4,3.6-7.6s6.5-2.4,8.3-2.3C81,10,80.3,13.7,77.6,15.9Z"/>
        </g>
      </g>
    </g>
  </g>
</svg>
