<svg xmlns="http://www.w3.org/2000/svg" width="34.4mm" height="14.4mm" viewBox="0 0 97.5 40.8">
  <defs>
    <style>
      .cls-1 {
        fill: #ffe59a;
      }

      .cls-10, .cls-2, .cls-4, .cls-6, .cls-7, .cls-9 {
        fill: none;
        stroke: #7b7d81;
      }

      .cls-10, .cls-2 {
        stroke-width: 1.02px;
      }

      .cls-3 {
        fill: #f8b99c;
      }

      .cls-4, .cls-7 {
        stroke-width: 2.04px;
      }

      .cls-5 {
        fill: #adddef;
      }

      .cls-10, .cls-6, .cls-7, .cls-9 {
        stroke-linecap: round;
      }

      .cls-6 {
        stroke-width: 2.07px;
      }

      .cls-8 {
        fill: #d1e093;
      }

      .cls-9 {
        stroke-width: 1.03px;
      }
    </style>
  </defs>
  <g id="Ebene_2" data-name="Ebene 2">
    <g id="Ebene_1-2" data-name="Ebene 1">
      <g>
        <path class="cls-1" d="M27.6,36.7a3,3,0,0,0,3.1-3,3.1,3.1,0,1,0-6.2,0,3,3,0,0,0,3.1,3"/>
        <path class="cls-2" d="M27.6,36.7a3,3,0,0,0,3.1-3,3.1,3.1,0,1,0-6.2,0A3,3,0,0,0,27.6,36.7Z"/>
        <path class="cls-3" d="M36.8,14.3c-3.2.4-4.5,4.5-4.4,6.8.3,5,4.8,8.9,10.8,8.9S54,26.2,53.8,20.2c-.1-3.9-1.9-6.8-4.1-9.4-4.8-5.7-19.1.9-8.2,12.7"/>
        <path class="cls-4" d="M36.8,14.3c-3.2.4-4.5,4.5-4.4,6.8.3,5,4.8,8.9,10.8,8.9S54,26.2,53.8,20.2c-.1-3.9-1.9-6.8-4.1-9.4-4.8-5.7-19.1.9-8.2,12.7"/>
        <path class="cls-2" d="M32.4,21.1c0,4.2,7.3,5.7,13.6.3S50.4,11,48.4,9.7"/>
        <path class="cls-2" d="M47.4,20a3.3,3.3,0,1,0-5.3,3.4"/>
        <path class="cls-5" d="M30.7,31.9c-3.7.2-6.8-3-6.8-3s2.6-3.5,6.3-3.6S37,28.2,37,28.2"/>
        <path class="cls-6" d="M30.7,31.9c-3.7.2-6.8-3-6.8-3s2.6-3.5,6.3-3.6S37,28.2,37,28.2"/>
        <path class="cls-5" d="M29.5,39.4s-1.1-4.1,1.1-7.2,6.6-3.4,6.6-3.4,1,4.3-1.1,7.2-6.6,3.4-6.6,3.4"/>
        <path class="cls-4" d="M29.5,39.4s-1.1-4.1,1.1-7.2,6.6-3.4,6.6-3.4,1,4.3-1.1,7.2S29.5,39.4,29.5,39.4Z"/>
        <path class="cls-1" d="M59.1,2.8a3.8,3.8,0,0,0-.8,5.3,3.9,3.9,0,1,0,.8-5.3"/>
        <path class="cls-2" d="M59.1,2.8a3.8,3.8,0,0,0-.8,5.3,3.9,3.9,0,1,0,.8-5.3Z"/>
        <path class="cls-5" d="M59.6,9.6c3.6-2.9,8.9-2.1,8.9-2.1s.1,5.3-3.4,8.2-9,2.1-9,2.1"/>
        <path class="cls-7" d="M59.6,9.6c3.6-2.9,8.9-2.1,8.9-2.1s.1,5.3-3.4,8.2-9,2.1-9,2.1"/>
        <path class="cls-5" d="M55.5,1.3s4.2,3.4,4.3,8-4,8.1-4,8.1S51.6,14,51.5,9.5s4-8.2,4-8.2"/>
        <path class="cls-4" d="M55.5,1.3s4.2,3.4,4.3,8-4,8.1-4,8.1S51.6,14,51.5,9.5,55.5,1.3,55.5,1.3Z"/>
        <path class="cls-8" d="M97,5.8s0,5.4-3.6,8.4-9.1,2.2-9.1,2.2S84.5,11,88,8s9-2.2,9-2.2"/>
        <path class="cls-2" d="M97,5.8s0,5.4-3.6,8.4-9.1,2.2-9.1,2.2S84.5,11,88,8,97,5.8,97,5.8Z"/>
        <path class="cls-8" d="M78.3,10.7a5.9,5.9,0,0,1-2.2-3.9,6.7,6.7,0,0,1,1.7-4.4,6.3,6.3,0,0,1,2.2,4,6.4,6.4,0,0,1-1.7,4.3"/>
        <path class="cls-2" d="M78.3,10.7a5.9,5.9,0,0,1-2.2-3.9,6.7,6.7,0,0,1,1.7-4.4,6.3,6.3,0,0,1,2.2,4A6.4,6.4,0,0,1,78.3,10.7Z"/>
        <path class="cls-8" d="M80.7,34.4A5.4,5.4,0,0,1,85,35.5c1.8,1.4,2,4.2,2,4.2a6.2,6.2,0,0,1-4.4-1.1,6.4,6.4,0,0,1-1.9-4.2"/>
        <path class="cls-2" d="M80.7,34.4A5.4,5.4,0,0,1,85,35.5c1.8,1.4,2,4.2,2,4.2a6.2,6.2,0,0,1-4.4-1.1A6.4,6.4,0,0,1,80.7,34.4Z"/>
        <path class="cls-3" d="M71.9,25.7a6.5,6.5,0,1,0-6.7-6.5,6.6,6.6,0,0,0,6.7,6.5"/>
        <path class="cls-4" d="M71.9,25.7a6.5,6.5,0,1,0-6.7-6.5A6.6,6.6,0,0,0,71.9,25.7Z"/>
        <path class="cls-2" d="M71.8,12.7c-3.3.2-3.9,4.1-1.4,8A3.8,3.8,0,0,0,75.8,22c1.5-.9,3.1-2.3,2.6-4.5"/>
        <path class="cls-2" d="M73,21.6a2.4,2.4,0,1,0-2.4-2.4A2.3,2.3,0,0,0,73,21.6Z"/>
        <path class="cls-9" d="M53.9,20.5s4.3,12.6,14.7,12.2c7.8-.3,11-2.9,12.2-4.2"/>
        <path class="cls-8" d="M70.4,40.2s-2.8-.5-4-2.5a5.6,5.6,0,0,1-.4-4.5s2.8.6,4,2.5a5.6,5.6,0,0,1,.4,4.5"/>
        <path class="cls-2" d="M70.4,40.2s-2.8-.5-4-2.5a5.6,5.6,0,0,1-.4-4.5s2.8.6,4,2.5A5.6,5.6,0,0,1,70.4,40.2Z"/>
        <path class="cls-8" d="M70.6,24.5a7,7,0,0,1-1.6,5,7.5,7.5,0,0,1-4.9,1.9,7.4,7.4,0,0,1,1.6-5,7,7,0,0,1,4.9-1.9"/>
        <path class="cls-2" d="M70.6,24.5a7,7,0,0,1-1.6,5,7.5,7.5,0,0,1-4.9,1.9,7.4,7.4,0,0,1,1.6-5A7,7,0,0,1,70.6,24.5Z"/>
        <path class="cls-8" d="M53.8,34.7s-2.6-2.5-2.3-5.5,3.4-5.1,3.4-5.1,2.6,2.6,2.3,5.6-3.4,5-3.4,5"/>
        <path class="cls-4" d="M53.8,34.7s-2.6-2.5-2.3-5.5,3.4-5.1,3.4-5.1,2.6,2.6,2.3,5.6S53.8,34.7,53.8,34.7Z"/>
        <path class="cls-8" d="M65.2,21.4s-1.5,3.4-4.5,4.2-5.8-1.1-5.8-1.1,1.6-3.4,4.5-4.2,5.8,1.1,5.8,1.1"/>
        <path class="cls-4" d="M65.2,21.4s-1.5,3.4-4.5,4.2-5.8-1.1-5.8-1.1,1.6-3.4,4.5-4.2S65.2,21.4,65.2,21.4Z"/>
        <path class="cls-8" d="M76.6,24.9a4.4,4.4,0,0,1,.1,3.7,6,6,0,0,1-3.1,2.5,5,5,0,0,1-.1-3.7,5.4,5.4,0,0,1,3.1-2.5"/>
        <path class="cls-2" d="M76.6,24.9a4.4,4.4,0,0,1,.1,3.7,6,6,0,0,1-3.1,2.5,5,5,0,0,1-.1-3.7A5.4,5.4,0,0,1,76.6,24.9Z"/>
        <path class="cls-8" d="M84.6,22.5a4.6,4.6,0,0,1-.5,3.8,5.7,5.7,0,0,1-3.4,2.2,5.1,5.1,0,0,1,.4-3.9,5.7,5.7,0,0,1,3.5-2.1"/>
        <path class="cls-2" d="M84.6,22.5a4.6,4.6,0,0,1-.5,3.8,5.7,5.7,0,0,1-3.4,2.2,5.1,5.1,0,0,1,.4-3.9A5.7,5.7,0,0,1,84.6,22.5Z"/>
        <path class="cls-1" d="M6.6,24.2a5.3,5.3,0,0,1-2.5,2.4,5.1,5.1,0,0,1-3.4-.2A4.9,4.9,0,0,1,3.2,24a4.5,4.5,0,0,1,3.4.2"/>
        <path class="cls-2" d="M6.6,24.2a5.3,5.3,0,0,1-2.5,2.4,5.1,5.1,0,0,1-3.4-.2A4.9,4.9,0,0,1,3.2,24,4.5,4.5,0,0,1,6.6,24.2Z"/>
        <path class="cls-1" d="M19.1,23.5a3.2,3.2,0,0,1-.2-2.5,3.2,3.2,0,0,1,1.8-1.7,3.1,3.1,0,0,1,.2,2.4,3.5,3.5,0,0,1-1.8,1.8"/>
        <path class="cls-2" d="M19.1,23.5a3.2,3.2,0,0,1-.2-2.5,3.2,3.2,0,0,1,1.8-1.7,3.1,3.1,0,0,1,.2,2.4A3.5,3.5,0,0,1,19.1,23.5Z"/>
        <path class="cls-1" d="M6.5,18a4,4,0,0,1,2.6-.8,3.9,3.9,0,0,1,2,1.6,4.2,4.2,0,0,1-2.6.7,3.5,3.5,0,0,1-2-1.5"/>
        <path class="cls-2" d="M6.5,18a4,4,0,0,1,2.6-.8,3.9,3.9,0,0,1,2,1.6,4.2,4.2,0,0,1-2.6.7A3.5,3.5,0,0,1,6.5,18Z"/>
        <path class="cls-1" d="M15.8,25.8a3.9,3.9,0,0,1-1.2-2.1,2.8,2.8,0,0,1,1-2.1,3.9,3.9,0,0,1,1.2,2.1,2.8,2.8,0,0,1-1,2.1"/>
        <path class="cls-2" d="M15.8,25.8a3.9,3.9,0,0,1-1.2-2.1,2.8,2.8,0,0,1,1-2.1,3.9,3.9,0,0,1,1.2,2.1A2.8,2.8,0,0,1,15.8,25.8Z"/>
        <path class="cls-1" d="M11.7,28.8a3.4,3.4,0,0,1-.9-2.4,3.1,3.1,0,0,1,1.3-2.1,3.5,3.5,0,0,1,.9,2.5,2.8,2.8,0,0,1-1.3,2"/>
        <path class="cls-2" d="M11.7,28.8a3.4,3.4,0,0,1-.9-2.4,3.1,3.1,0,0,1,1.3-2.1,3.5,3.5,0,0,1,.9,2.5A2.8,2.8,0,0,1,11.7,28.8Z"/>
        <path class="cls-10" d="M27.9,20.6c-1.8-1.4-5.6-3.6-9.7-1.6s-5.6,4.1-5.9,5.1"/>
      </g>
    </g>
  </g>
</svg>
