<?xml version="1.0" encoding="utf-8"?>
<!-- Generator: Adobe Illustrator 26.0.2, SVG Export Plug-In . SVG Version: 6.00 Build 0)  -->
<svg version="1.1" id="Ebene_1" xmlns="http://www.w3.org/2000/svg" xmlns:xlink="http://www.w3.org/1999/xlink" x="0px" y="0px"
	 viewBox="0 0 117.4 86.7" style="enable-background:new 0 0 117.4 86.7;" xml:space="preserve">
<style type="text/css">
	.st0{fill:#D2E094;}
	.st1{fill:#AEB4C1;}
</style>
<g id="Ebene_2_00000164499004346849971420000007043466576389967792_">
	<g id="Ebene_1-2">
		<g>
			<path class="st0" d="M86.5,41.2c0,0,5.9-5.7,13.3-5c7.4,0.7,12.6,7.5,12.6,7.5s-6,5.8-13.2,5.1C92,48.1,86.5,41.2,86.5,41.2"/>
			<path class="st1" d="M39.6,65.4C19,65.4,0.7,52.1,0.5,51.9c-0.6-0.6-0.6-1.5,0-2.1c0.6-0.6,1.4-0.6,2-0.1
				c0.8,0.6,34.4,24.4,60,5.3c19.1-14.4,23.2-26.6,24-32.7c0.1-0.8,0.9-1.4,1.7-1.3c0.8,0.1,1.4,0.9,1.3,1.7
				c-0.8,6.5-5.2,19.6-25.2,34.7C56.4,63.3,47.8,65.4,39.6,65.4z"/>
			<path class="st0" d="M80.4,71.4c0,0-8.2,3.5-15.1,0.5c-6.9-3-9.1-10.9-9.1-10.9s8.4-3.4,15.1-0.6C78,63.2,80.4,71.4,80.4,71.4"/>
			<path class="st0" d="M52.9,30.1c0,0,6.1,7.4,4.7,15.9s-9.4,13.8-9.4,13.8s-6-7.6-4.7-15.8S52.9,30.1,52.9,30.1"/>
			<path class="st0" d="M29.3,50.8c6.1-7.6,4.1-19,4.1-19s-11.3,0-17.2,7.4c-4.9,6.2-4.5,15.3-4.2,18.1c-0.4-0.1-0.6-0.1-0.6-0.1
				S7,67.9,11.6,76.3c4.6,8.5,15.8,10.4,15.8,10.4s4.2-11-0.2-19.2c-2.9-5.5-9-8.3-12.7-9.5C18.1,57.6,25,56.2,29.3,50.8z"/>
			<path class="st0" d="M69,20.5c0,0,6.1,3.3,7.1,9.4c1,6.1-3.6,12-3.6,12s-6.1-3.5-7-9.4C64.6,26.6,69,20.5,69,20.5"/>
			<path class="st0" d="M94.7,6.1c-1.4,1.1-2.6,2.5-3.6,3.8c-0.6-6-5.6-9.9-5.6-9.9s-5.3,5.5-5.1,11.8c0.2,5.7,4.7,9.9,5.5,10.7
				c-0.6,2.9-0.6,4.8-0.6,4.8s13.7,2.2,22.8-5.4c9.1-7.6,9.3-21.2,9.3-21.2S103.5-1.3,94.7,6.1z"/>
		</g>
	</g>
</g>
</svg>
