<svg xmlns="http://www.w3.org/2000/svg" width="14.7mm" height="15.1mm" viewBox="0 0 41.7 42.7">
  <defs>
    <style>
      .cls-1 {
        fill: #f9c0a3;
      }
    </style>
  </defs>
  <g id="Ebene_2" data-name="Ebene 2">
    <g id="Ebene_1-2" data-name="Ebene 1">
      <g>
        <path class="cls-1" d="M33.7,7a1.7,1.7,0,0,1,1.6,1.7,1.6,1.6,0,0,1-1.6,1.7A1.6,1.6,0,0,1,32,8.7,1.7,1.7,0,0,1,33.7,7"/>
        <path class="cls-1" d="M30,0H11.7A11.9,11.9,0,0,0,0,12V30.7a11.9,11.9,0,0,0,11.7,12H30a11.9,11.9,0,0,0,11.7-12V12A11.9,11.9,0,0,0,30,0m0,2.6A9.3,9.3,0,0,1,39.2,12V30.7A9.3,9.3,0,0,1,30,40.1H11.7a9.3,9.3,0,0,1-9.2-9.4V12a9.3,9.3,0,0,1,9.2-9.4Z"/>
        <path class="cls-1" d="M20.8,9.1A12.1,12.1,0,0,0,8.9,21.4,12.1,12.1,0,0,0,20.8,33.6a12.1,12.1,0,0,0,12-12.2,12.1,12.1,0,0,0-12-12.3m0,2.6a9.5,9.5,0,0,1,9.5,9.7,9.5,9.5,0,1,1-18.9,0,9.5,9.5,0,0,1,9.4-9.7"/>
      </g>
    </g>
  </g>
</svg>
