<svg xmlns="http://www.w3.org/2000/svg" width="8.3mm" height="15.1mm" viewBox="0 0 23.7 42.7">
  <defs>
    <style>
      .cls-1 {
        fill: #f9c0a3;
      }
    </style>
  </defs>
  <g id="Ebene_2" data-name="Ebene 2">
    <g id="Ebene_1-2" data-name="Ebene 1">
      <path class="cls-1" d="M8.4,40.2h5.8V24.1a1.3,1.3,0,0,1,1.3-1.4H21V17H15.5a1.4,1.4,0,0,1-1.3-1.4V11.8A4.6,4.6,0,0,1,15,8.9a4.2,4.2,0,0,1,3.2-1.1h3V2.5H16.6c-5.1,0-8.2,3.3-8.2,8.6v4.5A1.4,1.4,0,0,1,7,17H2.4v5.7H7a1.4,1.4,0,0,1,1.4,1.4Zm6.2,2.5H7.9a2,2,0,0,1-2-2.1V25.2H2a2,2,0,0,1-2-2.1V16.5a2,2,0,0,1,2-2H5.9V11.1a11.4,11.4,0,0,1,2.9-8A10.5,10.5,0,0,1,16.6,0h5a2.1,2.1,0,0,1,2.1,2.1V8.2a2.1,2.1,0,0,1-2.1,2.1H18.2c-1,0-1.3.2-1.4.3a3.5,3.5,0,0,0-.2,1.2v2.7h4.8a1.8,1.8,0,0,1,1,.2,2.2,2.2,0,0,1,1,1.8v6.6a2,2,0,0,1-2,2.1H16.6V40.6a2,2,0,0,1-2,2.1"/>
    </g>
  </g>
</svg>
